<?xml version="1.0" encoding="UTF-8" standalone="no"?>
<!DOCTYPE svg PUBLIC "-//W3C//DTD SVG 1.1//EN" "http://www.w3.org/Graphics/SVG/1.1/DTD/svg11.dtd">
<svg version="1.1" xmlns="http://www.w3.org/2000/svg" xmlns:xlink="http://www.w3.org/1999/xlink" preserveAspectRatio="xMidYMid meet" viewBox="0 0 640 640" width="640" height="640"><defs><path d="M609.74 10.12C621.79 10.12 631.56 19.9 631.56 31.95C631.56 112.07 631.56 330.61 631.56 410.73C631.56 422.78 621.79 432.56 609.74 432.56C509.33 432.56 229.93 432.56 129.52 432.56C117.47 432.56 107.69 422.78 107.69 410.73C107.69 330.61 107.69 112.07 107.69 31.95C107.69 19.9 117.47 10.12 129.52 10.12C229.93 10.12 509.33 10.12 609.74 10.12Z" id="b1FnBfjZEj"></path><path d="M571.91 50.19C582.04 50.19 590.25 58.4 590.25 68.53C590.25 133.59 590.25 310.41 590.25 375.47C590.25 385.6 582.04 393.81 571.91 393.81C487.53 393.81 252.73 393.81 168.35 393.81C158.22 393.81 150 385.6 150 375.47C150 310.41 150 133.59 150 68.53C150 58.4 158.22 50.19 168.35 50.19C252.73 50.19 487.53 50.19 571.91 50.19Z" id="a3z95cH0z5"></path><path d="M640 550.51L0 550.51" id="a1tsm9BWoM"></path><path d="M471.07 509.88L471.07 430.77" id="a7xmpUXqQ"></path><path d="M504.33 509.08C509.15 509.08 513.05 512.99 513.05 517.8C513.05 522.24 513.05 526.84 513.05 531.28C513.05 536.1 509.15 540 504.33 540C442.44 540 265.48 540 203.58 540C198.77 540 194.86 536.1 194.86 531.28C194.86 526.84 194.86 522.24 194.86 517.8C194.86 512.99 198.77 509.08 203.58 509.08C265.48 509.08 442.44 509.08 504.33 509.08Z" id="aGSO1FJou"></path><path d="M383.09 509.54C387.91 509.54 391.81 513.44 391.81 518.26C391.81 522.7 391.81 527.3 391.81 531.74C391.81 536.56 387.91 540.46 383.09 540.46C320.86 540.46 142.89 540.46 80.65 540.46C75.84 540.46 71.94 536.56 71.94 531.74C71.94 527.3 71.94 522.7 71.94 518.26C71.94 513.44 75.84 509.54 80.65 509.54C142.89 509.54 320.86 509.54 383.09 509.54Z" id="alaYRBtrS"></path><path d="M382.97 389.18C387.78 389.22 391.65 393.16 391.61 397.98C391.58 402.41 391.54 407.01 391.5 411.45C391.46 416.27 387.53 420.14 382.71 420.1C319.81 419.58 139.81 418.08 76.91 417.56C72.09 417.52 68.22 413.58 68.26 408.77C68.3 404.33 68.34 399.73 68.37 395.29C68.41 390.47 72.35 386.6 77.17 386.64C140.07 387.16 320.06 388.66 382.97 389.18Z" id="aeaoX2pDb"></path><path d="M384.41 266.81C389.22 266.85 393.09 270.79 393.05 275.6C393.02 280.04 392.98 284.64 392.94 289.08C392.9 293.9 388.96 297.77 384.15 297.73C321.25 297.21 141.25 295.71 78.35 295.19C73.53 295.15 69.66 291.21 69.7 286.4C69.74 281.96 69.78 277.36 69.81 272.92C69.85 268.1 73.79 264.23 78.6 264.27C141.51 264.79 321.5 266.29 384.41 266.81Z" id="dEk5PMUaQ"></path><path d="M407.82 297C420.9 297 431.5 307.6 431.5 320.67C431.5 334.12 431.5 350.8 431.5 364.25C431.5 377.32 420.9 387.92 407.82 387.92C332.07 387.92 128.49 387.92 52.74 387.92C39.66 387.92 29.06 377.32 29.06 364.25C29.06 350.8 29.06 334.12 29.06 320.67C29.06 307.6 39.66 297 52.74 297C128.49 297 332.07 297 407.82 297Z" id="a2BRrXIn4H"></path><path d="M410.45 420C423.52 420 434.12 430.6 434.12 443.67C434.12 457.12 434.12 473.8 434.12 487.25C434.12 500.32 423.52 510.92 410.45 510.92C334.69 510.92 131.11 510.92 55.36 510.92C42.29 510.92 31.69 500.32 31.69 487.25C31.69 473.8 31.69 457.12 31.69 443.67C31.69 430.6 42.29 420 55.36 420C131.11 420 334.69 420 410.45 420Z" id="d2XY42Gep6"></path><path d="M168.75 478C171.52 478 173.77 480.25 173.77 483.02C173.77 488.2 173.77 498.72 173.77 503.9C173.77 506.67 171.52 508.92 168.75 508.92C152.69 508.92 109.52 508.92 93.46 508.92C90.68 508.92 88.44 506.67 88.44 503.9C88.44 498.72 88.44 488.2 88.44 483.02C88.44 480.25 90.68 478 93.46 478C109.52 478 152.69 478 168.75 478Z" id="a1kJUwtA6R"></path><path d="M170.19 349.08C172.96 349.08 175.21 351.33 175.21 354.1C175.21 359.28 175.21 369.8 175.21 374.98C175.21 377.75 172.96 380 170.19 380C154.13 380 110.96 380 94.9 380C92.12 380 89.88 377.75 89.88 374.98C89.88 369.8 89.88 359.28 89.88 354.1C89.88 351.33 92.12 349.08 94.9 349.08C110.96 349.08 154.13 349.08 170.19 349.08Z" id="ccxurrqWi"></path><path d="M382 343C382 354.04 373.04 363 362 363C350.96 363 342 354.04 342 343C342 331.96 350.96 323 362 323C373.04 323 382 331.96 382 343Z" id="d2CY9EX1ZL"></path><path d="M320 343C320 354.04 311.04 363 300 363C288.96 363 280 354.04 280 343C280 331.96 288.96 323 300 323C311.04 323 320 331.96 320 343Z" id="b2eIFMIM8p"></path><path d="M320 466.26C320 477.3 311.04 486.26 300 486.26C288.96 486.26 280 477.3 280 466.26C280 455.22 288.96 446.26 300 446.26C311.04 446.26 320 455.22 320 466.26Z" id="j4QOsrvn2D"></path><path d="M380 466.21C380 477.25 371.04 486.21 360 486.21C348.96 486.21 340 477.25 340 466.21C340 455.17 348.96 446.21 360 446.21C371.04 446.21 380 455.17 380 466.21Z" id="lDywayNaq"></path></defs><g><g><g><g><use xlink:href="#b1FnBfjZEj" opacity="1" fill-opacity="0" stroke="#ff827b" stroke-width="18" stroke-opacity="1"></use></g></g><g><g><use xlink:href="#a3z95cH0z5" opacity="1" fill-opacity="0" stroke="#ff827b" stroke-width="18" stroke-opacity="1"></use></g></g><g><g><use xlink:href="#a1tsm9BWoM" opacity="1" fill-opacity="0" stroke="#ff827b" stroke-width="18" stroke-opacity="1"></use></g></g><g><g><use xlink:href="#a7xmpUXqQ" opacity="1" fill-opacity="0" stroke="#ff827b" stroke-width="18" stroke-opacity="1"></use></g></g><g><use xlink:href="#aGSO1FJou" opacity="1" fill="#ffffff" fill-opacity="1"></use><g><use xlink:href="#aGSO1FJou" opacity="1" fill-opacity="0" stroke="#ff827b" stroke-width="18" stroke-opacity="1"></use></g></g><g><use xlink:href="#alaYRBtrS" opacity="1" fill="#ffffff" fill-opacity="1"></use><g><use xlink:href="#alaYRBtrS" opacity="1" fill-opacity="0" stroke="#ff827b" stroke-width="18" stroke-opacity="1"></use></g></g><g><use xlink:href="#aeaoX2pDb" opacity="1" fill="#ffffff" fill-opacity="1"></use><g><use xlink:href="#aeaoX2pDb" opacity="1" fill-opacity="0" stroke="#ff827b" stroke-width="18" stroke-opacity="1"></use></g></g><g><use xlink:href="#dEk5PMUaQ" opacity="1" fill="#ffffff" fill-opacity="1"></use><g><use xlink:href="#dEk5PMUaQ" opacity="1" fill-opacity="0" stroke="#ff827b" stroke-width="18" stroke-opacity="1"></use></g></g><g><use xlink:href="#a2BRrXIn4H" opacity="1" fill="#ffffff" fill-opacity="1"></use><g><use xlink:href="#a2BRrXIn4H" opacity="1" fill-opacity="0" stroke="#ff827b" stroke-width="18" stroke-opacity="1"></use></g></g><g><use xlink:href="#d2XY42Gep6" opacity="1" fill="#ffffff" fill-opacity="1"></use><g><use xlink:href="#d2XY42Gep6" opacity="1" fill-opacity="0" stroke="#ff827b" stroke-width="18" stroke-opacity="1"></use></g></g><g><g><use xlink:href="#a1kJUwtA6R" opacity="1" fill-opacity="0" stroke="#ff827b" stroke-width="18" stroke-opacity="1"></use></g></g><g><g><use xlink:href="#ccxurrqWi" opacity="1" fill-opacity="0" stroke="#ff827b" stroke-width="18" stroke-opacity="1"></use></g></g><g><use xlink:href="#d2CY9EX1ZL" opacity="1" fill="#ff827b" fill-opacity="1"></use></g><g><use xlink:href="#b2eIFMIM8p" opacity="1" fill="#ff827b" fill-opacity="1"></use></g><g><use xlink:href="#j4QOsrvn2D" opacity="1" fill="#ff827b" fill-opacity="1"></use></g><g><use xlink:href="#lDywayNaq" opacity="1" fill="#ff827b" fill-opacity="1"></use></g></g></g></svg>