<?xml version="1.0" encoding="UTF-8" standalone="no"?>
<!DOCTYPE svg PUBLIC "-//W3C//DTD SVG 1.1//EN" "http://www.w3.org/Graphics/SVG/1.1/DTD/svg11.dtd">
<svg version="1.1" xmlns="http://www.w3.org/2000/svg" xmlns:xlink="http://www.w3.org/1999/xlink" preserveAspectRatio="xMidYMid meet" viewBox="0 0 640 640" width="640" height="640"><defs><path d="M603.9 36.26C619.69 36.26 632.5 49.07 632.5 64.86C632.5 172.64 632.5 467.36 632.5 575.14C632.5 590.93 619.69 603.74 603.9 603.74C484.62 603.74 155.38 603.74 36.1 603.74C20.31 603.74 7.5 590.93 7.5 575.14C7.5 467.36 7.5 172.64 7.5 64.86C7.5 49.07 20.31 36.26 36.1 36.26C155.38 36.26 484.62 36.26 603.9 36.26Z" id="e2AYI3HNP0"></path><path d="M635.25 140L3.86 140" id="a6l7kLOKWt"></path><path d="M90 86C90 99.8 78.8 111 65 111C51.2 111 40 99.8 40 86C40 72.2 51.2 61 65 61C78.8 61 90 72.2 90 86Z" id="a179t9epjL"></path><path d="M150 86C150 99.8 138.8 111 125 111C111.2 111 100 99.8 100 86C100 72.2 111.2 61 125 61C138.8 61 150 72.2 150 86Z" id="apNQzp9Mh"></path><path d="M210 86C210 99.8 198.8 111 185 111C171.2 111 160 99.8 160 86C160 72.2 171.2 61 185 61C198.8 61 210 72.2 210 86Z" id="aJL2kXWjI"></path><path d="M220 569.7L420 174.74" id="dZw6UY5Rt"></path><path d="M229 404.32L129 304.32L229 204.32" id="e9EWJVIsVR"></path><path d="M412.94 540L512.94 440L412.94 340" id="lRXvZ7ceG"></path></defs><g><g><g><g><use xlink:href="#e2AYI3HNP0" opacity="1" fill-opacity="0" stroke="#ff827b" stroke-width="18" stroke-opacity="1"></use></g></g><g><g><use xlink:href="#a6l7kLOKWt" opacity="1" fill-opacity="0" stroke="#ff827b" stroke-width="18" stroke-opacity="1"></use></g></g><g><use xlink:href="#a179t9epjL" opacity="1" fill="#ff827b" fill-opacity="1"></use></g><g><use xlink:href="#apNQzp9Mh" opacity="1" fill="#ff827b" fill-opacity="1"></use></g><g><use xlink:href="#aJL2kXWjI" opacity="1" fill="#ff827b" fill-opacity="1"></use></g><g><g><use xlink:href="#dZw6UY5Rt" opacity="1" fill-opacity="0" stroke="#ff827b" stroke-width="18" stroke-opacity="1"></use></g></g><g><g><use xlink:href="#e9EWJVIsVR" opacity="1" fill-opacity="0" stroke="#ff827b" stroke-width="18" stroke-opacity="1"></use></g></g><g><g><use xlink:href="#lRXvZ7ceG" opacity="1" fill-opacity="0" stroke="#ff827b" stroke-width="18" stroke-opacity="1"></use></g></g></g></g></svg>