<svg width="280" height="49" viewBox="0 0 280 49" fill="none" xmlns="http://www.w3.org/2000/svg">
<path d="M35.2473 38H28.7973L27.8973 23.55C27.5973 18.3833 27.4473 14.2833 27.4473 11.25V9.45L21.1473 34.25H14.8973L8.19727 9.4C8.26393 11.6 8.29727 13.2667 8.29727 14.4C8.29727 17.4333 8.19727 20.55 7.99727 23.75L7.14727 38H0.747266L3.49727 3.45H11.9973L18.1473 27.65L23.9473 3.45H32.5473L35.2473 38ZM52.2086 10.8C56.1086 10.8 59.1419 12.05 61.3086 14.55C63.5086 17.0167 64.6086 20.4167 64.6086 24.75C64.6086 27.5167 64.1086 29.9667 63.1086 32.1C62.1086 34.2 60.6753 35.8333 58.8086 37C56.9419 38.1667 54.7253 38.75 52.1586 38.75C48.2586 38.75 45.2086 37.5167 43.0086 35.05C40.8086 32.55 39.7086 29.1167 39.7086 24.75C39.7086 21.9833 40.2086 19.55 41.2086 17.45C42.2086 15.35 43.6419 13.7167 45.5086 12.55C47.4086 11.3833 49.6419 10.8 52.2086 10.8ZM52.2086 15.65C48.3753 15.65 46.4586 18.6833 46.4586 24.75C46.4586 27.8833 46.9253 30.2 47.8586 31.7C48.8253 33.1667 50.2586 33.9 52.1586 33.9C54.0586 33.9 55.4753 33.15 56.4086 31.65C57.3753 30.15 57.8586 27.85 57.8586 24.75C57.8586 21.65 57.3753 19.3667 56.4086 17.9C55.4753 16.4 54.0753 15.65 52.2086 15.65ZM81.4078 10.8C85.3078 10.8 88.3411 12.05 90.5078 14.55C92.7078 17.0167 93.8078 20.4167 93.8078 24.75C93.8078 27.5167 93.3078 29.9667 92.3078 32.1C91.3078 34.2 89.8745 35.8333 88.0078 37C86.1411 38.1667 83.9245 38.75 81.3578 38.75C77.4578 38.75 74.4078 37.5167 72.2078 35.05C70.0078 32.55 68.9078 29.1167 68.9078 24.75C68.9078 21.9833 69.4078 19.55 70.4078 17.45C71.4078 15.35 72.8411 13.7167 74.7078 12.55C76.6078 11.3833 78.8411 10.8 81.4078 10.8ZM81.4078 15.65C77.5745 15.65 75.6578 18.6833 75.6578 24.75C75.6578 27.8833 76.1245 30.2 77.0578 31.7C78.0245 33.1667 79.4578 33.9 81.3578 33.9C83.2578 33.9 84.6745 33.15 85.6078 31.65C86.5745 30.15 87.0578 27.85 87.0578 24.75C87.0578 21.65 86.5745 19.3667 85.6078 17.9C84.6745 16.4 83.2745 15.65 81.4078 15.65ZM122.057 0.949997V38H116.407L115.957 34.65C115.124 35.9167 114.057 36.9167 112.757 37.65C111.49 38.3833 110.04 38.75 108.407 38.75C105.174 38.75 102.69 37.5 100.957 35C99.2237 32.5 98.357 29.1 98.357 24.8C98.357 22.1 98.7904 19.7 99.657 17.6C100.524 15.4667 101.757 13.8 103.357 12.6C104.99 11.4 106.874 10.8 109.007 10.8C111.54 10.8 113.757 11.75 115.657 13.65V0.249997L122.057 0.949997ZM110.207 33.9C111.34 33.9 112.34 33.6333 113.207 33.1C114.074 32.5333 114.89 31.6667 115.657 30.5V18.4C114.89 17.4667 114.107 16.7667 113.307 16.3C112.54 15.8333 111.64 15.6 110.607 15.6C108.907 15.6 107.557 16.3667 106.557 17.9C105.59 19.4 105.107 21.6833 105.107 24.75C105.107 28.0167 105.54 30.3667 106.407 31.8C107.274 33.2 108.54 33.9 110.207 33.9ZM138.089 10.8C141.655 10.8 144.789 11.85 147.489 13.95L144.989 17.7C142.722 16.2667 140.505 15.55 138.339 15.55C137.072 15.55 136.089 15.8 135.389 16.3C134.689 16.7667 134.339 17.4 134.339 18.2C134.339 18.8 134.489 19.3 134.789 19.7C135.089 20.1 135.622 20.4833 136.389 20.85C137.189 21.1833 138.355 21.5667 139.889 22C142.755 22.7667 144.872 23.7833 146.239 25.05C147.639 26.3167 148.339 28.0833 148.339 30.35C148.339 32.9833 147.272 35.05 145.139 36.55C143.005 38.0167 140.355 38.75 137.189 38.75C135.022 38.75 133.039 38.4167 131.239 37.75C129.472 37.0833 127.939 36.1667 126.639 35L129.839 31.4C132.139 33.1333 134.539 34 137.039 34C138.472 34 139.605 33.7167 140.439 33.15C141.305 32.5833 141.739 31.8 141.739 30.8C141.739 30.0333 141.572 29.4333 141.239 29C140.939 28.5333 140.372 28.1333 139.539 27.8C138.739 27.4333 137.472 27 135.739 26.5C133.039 25.7667 131.055 24.75 129.789 23.45C128.522 22.1167 127.889 20.4667 127.889 18.5C127.889 17.0333 128.305 15.7167 129.139 14.55C130.005 13.3833 131.205 12.4667 132.739 11.8C134.305 11.1333 136.089 10.8 138.089 10.8ZM167.218 10.8C170.551 10.8 173.018 12.0167 174.618 14.45C176.218 16.8833 177.018 20.3 177.018 24.7C177.018 27.4333 176.601 29.8667 175.768 32C174.968 34.1 173.768 35.75 172.168 36.95C170.601 38.15 168.735 38.75 166.568 38.75C163.768 38.75 161.551 37.7833 159.918 35.85V48.2L153.518 48.9V11.55H159.118L159.468 14.8C160.501 13.4667 161.685 12.4667 163.018 11.8C164.351 11.1333 165.751 10.8 167.218 10.8ZM164.768 33.85C168.468 33.85 170.318 30.8167 170.318 24.75C170.318 21.5167 169.901 19.1833 169.068 17.75C168.235 16.3167 166.985 15.6 165.318 15.6C164.251 15.6 163.251 15.9333 162.318 16.6C161.385 17.2333 160.585 18.1 159.918 19.2V31.1C161.151 32.9333 162.768 33.85 164.768 33.85ZM197.403 10.8C199.736 10.8 201.57 11.5167 202.903 12.95C204.236 14.3833 204.903 16.35 204.903 18.85V38H198.503V19.85C198.503 18.2833 198.22 17.1833 197.653 16.55C197.12 15.9167 196.32 15.6 195.253 15.6C194.186 15.6 193.203 15.95 192.303 16.65C191.403 17.3167 190.536 18.2833 189.703 19.55V38H183.303V1L189.703 0.349999V14.7C191.836 12.1 194.403 10.8 197.403 10.8ZM234.056 24.15C234.056 24.4833 234.006 25.35 233.906 26.75H217.306C217.506 29.3167 218.173 31.15 219.306 32.25C220.439 33.35 221.939 33.9 223.806 33.9C224.973 33.9 226.073 33.7167 227.106 33.35C228.139 32.95 229.239 32.35 230.406 31.55L233.056 35.2C230.123 37.5667 226.856 38.75 223.256 38.75C219.223 38.75 216.106 37.5167 213.906 35.05C211.739 32.5833 210.656 29.2167 210.656 24.95C210.656 22.25 211.123 19.8333 212.056 17.7C212.989 15.5333 214.339 13.85 216.106 12.65C217.873 11.4167 219.973 10.8 222.406 10.8C226.106 10.8 228.973 11.9833 231.006 14.35C233.039 16.6833 234.056 19.95 234.056 24.15ZM227.706 22.3C227.706 17.6667 225.989 15.35 222.556 15.35C220.989 15.35 219.756 15.9333 218.856 17.1C217.989 18.2333 217.473 20.0667 217.306 22.6H227.706V22.3ZM252.847 10.85C253.814 10.85 254.697 10.9667 255.497 11.2L254.397 17.4C253.597 17.2 252.814 17.1 252.047 17.1C250.481 17.1 249.247 17.6667 248.347 18.8C247.447 19.9 246.731 21.6 246.197 23.9V38H239.797V11.55H245.347L245.947 16.75C246.581 14.85 247.497 13.4 248.697 12.4C249.897 11.3667 251.281 10.85 252.847 10.85ZM279.661 24.15C279.661 24.4833 279.611 25.35 279.511 26.75H262.911C263.111 29.3167 263.778 31.15 264.911 32.25C266.045 33.35 267.545 33.9 269.411 33.9C270.578 33.9 271.678 33.7167 272.711 33.35C273.745 32.95 274.845 32.35 276.011 31.55L278.661 35.2C275.728 37.5667 272.461 38.75 268.861 38.75C264.828 38.75 261.711 37.5167 259.511 35.05C257.345 32.5833 256.261 29.2167 256.261 24.95C256.261 22.25 256.728 19.8333 257.661 17.7C258.595 15.5333 259.945 13.85 261.711 12.65C263.478 11.4167 265.578 10.8 268.011 10.8C271.711 10.8 274.578 11.9833 276.611 14.35C278.645 16.6833 279.661 19.95 279.661 24.15ZM273.311 22.3C273.311 17.6667 271.595 15.35 268.161 15.35C266.595 15.35 265.361 15.9333 264.461 17.1C263.595 18.2333 263.078 20.0667 262.911 22.6H273.311V22.3Z" fill="#394648"/>
</svg>
