<svg width="141" height="38" viewBox="0 0 141 38" fill="none" xmlns="http://www.w3.org/2000/svg">
<path d="M35.3164 20.9C35.6831 21.8 35.9331 22.7833 36.0664 23.85C35.2997 24.3167 34.1331 24.8 32.5664 25.3C30.9997 25.8 29.5331 26.1 28.1664 26.2C26.6997 29.6333 24.6664 32.4 22.0664 34.5C19.4997 36.5667 16.2997 37.6 12.4664 37.6C8.63307 37.6 5.69974 36.3167 3.66641 33.75C1.66641 31.15 0.666406 27.5667 0.666406 23C0.666406 18.4 1.73307 14.2167 3.86641 10.45C5.99974 6.65 9.04974 3.68333 13.0164 1.55L14.0664 3.3C10.4664 7.8 8.66641 14.25 8.66641 22.65C8.66641 28.1167 9.49974 31.6 11.1664 33.1C11.9331 33.8333 12.8997 34.2 14.0664 34.2C17.3664 34.2 19.7664 31.3667 21.2664 25.7C18.6664 25.2333 16.6664 24.1333 15.2664 22.4C13.8664 20.6333 13.1664 18.1833 13.1664 15.05C13.1664 11.8833 14.0664 9.05 15.8664 6.55C17.6664 4.01666 19.8331 2.75 22.3664 2.75C24.9331 2.75 26.9331 3.88333 28.3664 6.15C29.7997 8.38333 30.5164 11.2667 30.5164 14.8C30.5164 17.0333 30.0664 19.75 29.1664 22.95C30.6664 22.8833 32.3997 22.3667 34.3664 21.4L35.3164 20.9ZM22.6164 14.7C22.6164 12.3 22.4831 10.5333 22.2164 9.4C21.9497 8.23333 21.3164 7.65 20.3164 7.65C19.3164 7.65 18.3831 8.4 17.5164 9.9C16.6831 11.3667 16.2664 13.1833 16.2664 15.35C16.2664 17.5167 16.7497 19.2167 17.7164 20.45C18.6831 21.65 20.0497 22.3333 21.8164 22.5C22.3497 19.6667 22.6164 17.0667 22.6164 14.7ZM33.5082 37.15H32.5582C32.5582 35.5833 33.0249 32.5833 33.9582 28.15C34.9249 23.7167 35.4082 21.2 35.4082 20.6C35.4082 19.5 34.9415 18.3333 34.0082 17.1L33.5582 16.5L33.6082 15.85C35.4082 15.35 38.2915 15.1 42.2582 15.1C42.6915 15.6667 42.9249 16.7 42.9582 18.2C45.8582 15.9667 48.3082 14.85 50.3082 14.85C51.5082 14.85 52.4582 15.2667 53.1582 16.1C53.8915 16.9333 54.2582 17.9833 54.2582 19.25C54.2582 20.4833 53.8749 22.6333 53.1082 25.7C52.3415 28.7667 51.9582 30.8333 51.9582 31.9C51.9582 32.9333 52.0915 33.45 52.3582 33.45C52.5582 33.45 53.2582 33.1333 54.4582 32.5L55.0582 32.2L55.9582 33.95C55.6582 34.2167 55.2582 34.55 54.7582 34.95C54.2582 35.35 53.3249 35.9 51.9582 36.6C50.6249 37.2667 49.4249 37.6 48.3582 37.6C45.9249 37.6 44.7082 36.2167 44.7082 33.45C44.7082 32.2833 45.0749 30.1333 45.8082 27C46.5749 23.8667 46.9582 21.85 46.9582 20.95C46.9582 20.05 46.6749 19.6 46.1082 19.6C45.1415 19.6 43.9582 20.0167 42.5582 20.85C42.4582 21.4167 42.1249 22.9167 41.5582 25.35C40.3915 30.5833 39.8082 34.2833 39.8082 36.45C38.6415 36.9167 36.5415 37.15 33.5082 37.15ZM76.0586 11.1C76.0586 10.4667 75.9753 10 75.8086 9.7C75.6753 9.4 75.3586 8.96667 74.8586 8.4L74.9086 8.05C76.6753 7.01667 78.8753 6.5 81.5086 6.5C82.5419 6.5 83.3086 6.58333 83.8086 6.75C83.9753 7.08333 84.0586 7.78333 84.0586 8.85C84.0586 9.88333 83.2586 13.6333 81.6586 20.1C82.3919 20.4 83.2253 20.55 84.1586 20.55C85.7586 20.55 87.0753 20 88.1086 18.9C89.1419 17.8 89.8086 16.6167 90.1086 15.35C90.4419 14.05 90.6086 12.6833 90.6086 11.25C90.6086 8.61666 89.8919 6.71667 88.4586 5.55C87.0586 4.35 84.7753 3.75 81.6086 3.75C77.4753 3.75 74.0419 4.58333 71.3086 6.25C68.5753 7.91667 67.2086 9.66667 67.2086 11.5C67.2086 12.4333 67.5586 13.2 68.2586 13.8C68.9919 14.3667 69.7419 14.75 70.5086 14.95C70.3753 16.15 69.9586 17.3833 69.2586 18.65C67.9919 18.4833 66.7919 17.8167 65.6586 16.65C64.4919 15.4833 63.9086 13.95 63.9086 12.05C63.9086 8.65 65.8086 5.91667 69.6086 3.85C73.4086 1.78333 77.8419 0.749999 82.9086 0.749999C87.9753 0.749999 91.8086 1.6 94.4086 3.3C97.0086 4.96667 98.3086 7.56667 98.3086 11.1C98.3086 15.7333 96.4586 19.2333 92.7586 21.6C90.7586 22.9 88.3586 23.55 85.5586 23.55C83.7919 23.55 82.2753 23.2833 81.0086 22.75C79.6086 28.45 78.7586 33.0167 78.4586 36.45C76.4919 37.0167 74.3086 37.3 71.9086 37.3C71.3419 37.3 70.9253 37.25 70.6586 37.15C70.8253 35.05 71.7586 30.6833 73.4586 24.05C75.1919 17.4167 76.0586 13.1 76.0586 11.1ZM112.097 16.3C112.164 16.2333 112.347 15.8 112.647 15C114.214 15 116.314 15.4667 118.947 16.4C118.114 19.1667 117.447 22.0667 116.947 25.1C116.447 28.1 116.197 30.25 116.197 31.55C116.197 32.8167 116.331 33.45 116.597 33.45C116.797 33.45 117.531 33.1333 118.797 32.5L119.397 32.2L120.297 33.95C119.997 34.2167 119.597 34.55 119.097 34.95C118.631 35.35 117.731 35.9 116.397 36.6C115.064 37.2667 113.864 37.6 112.797 37.6C110.731 37.6 109.531 36.6667 109.197 34.8C107.064 36.6667 105.131 37.6 103.397 37.6C101.697 37.6 100.247 36.9333 99.0473 35.6C97.8806 34.2667 97.2973 32.1667 97.2973 29.3C97.2973 24.8333 98.2139 21.3167 100.047 18.75C101.881 16.15 104.097 14.85 106.697 14.85C108.564 14.85 110.364 15.3333 112.097 16.3ZM106.397 33.35C107.197 33.35 108.097 33.0333 109.097 32.4C109.331 27.7 110.114 23.05 111.447 18.45C110.447 18.0167 109.597 17.8 108.897 17.8C107.697 17.8 106.664 18.9833 105.797 21.35C104.964 23.6833 104.547 26.2667 104.547 29.1C104.547 31.9333 105.164 33.35 106.397 33.35ZM122.221 37.15H121.871C121.804 36.8833 121.771 36.2833 121.771 35.35C121.771 34.3833 122.221 31.8167 123.121 27.65C124.021 23.4833 124.471 21.1 124.471 20.5C124.471 19.4667 124.004 18.3333 123.071 17.1L122.621 16.5L122.671 15.85C124.471 15.35 127.354 15.1 131.321 15.1C131.721 15.9667 131.921 17.1833 131.921 18.75C132.287 18.15 133.054 17.35 134.221 16.35C135.387 15.35 136.587 14.85 137.821 14.85C139.621 14.85 140.521 16.4167 140.521 19.55C140.354 19.75 140.121 20.0167 139.821 20.35C139.554 20.65 138.987 21.0833 138.121 21.65C137.287 22.2167 136.471 22.5667 135.671 22.7C135.637 22.7 135.354 22.25 134.821 21.35C134.287 20.45 133.887 20 133.621 20C132.787 20.3 132.054 20.8 131.421 21.5C129.887 28.4 129.121 32.8667 129.121 34.9C129.121 35.6333 129.137 36.15 129.171 36.45C128.004 36.9167 125.687 37.15 122.221 37.15Z" fill="white"/>
</svg>
