<svg width="275" height="35" viewBox="0 0 275 35" fill="none" xmlns="http://www.w3.org/2000/svg">
<path d="M10.0703 10.5H6.92031V1.4C6.92031 0.799999 6.27031 0.199998 5.62031 0.199998C5.02031 0.199998 4.42031 0.799999 4.42031 1.4V10.5H1.37031C0.170313 10.5 0.170313 11.1 0.170313 11.7C0.170313 12.3 0.170313 12.9 1.37031 12.9H4.42031V30.75C4.42031 33.2 6.27031 35 8.72031 35C9.32031 35 9.97031 34.4 9.97031 33.8C9.97031 33.2 9.32031 32.55 8.72031 32.55C8.12031 32.55 6.92031 31.95 6.92031 30.75V12.9H10.0703C10.6703 12.9 11.2703 12.3 11.2703 11.7C11.2703 11.1 10.6703 10.5 10.0703 10.5ZM28.3879 35C32.5379 35 36.1879 32.8 38.2879 29.45C38.6379 28.85 38.4379 28.15 37.8879 27.75C37.3879 27.45 36.6379 27.55 36.2879 28.15C34.6379 30.9 31.6379 32.6 28.3879 32.6C23.3379 32.6 19.1379 28.55 18.8879 23.2H38.9879C39.6379 23.2 40.1879 22.75 40.1879 22.1V21.95V21.9C39.6879 15.5 34.6879 10.5 28.3879 10.5C21.7879 10.5 16.4879 16 16.4879 22.8C16.4879 29.5 21.7879 35 28.3879 35ZM28.3879 12.9C32.8879 12.9 36.7879 16.25 37.5879 20.85H19.0379C19.9379 16.2 23.7879 12.9 28.3879 12.9ZM65.5566 10.5C64.9066 10.5 64.3566 11 64.3566 11.7V15.3C62.2566 12.4 58.9066 10.5 55.1566 10.5C48.7066 10.5 43.5566 16.05 43.5566 22.75C43.5566 29.45 48.7066 35 55.1566 35C58.9066 35 62.2566 33.05 64.3566 30.15V33.8C64.3566 34.45 64.9066 35 65.5566 35C66.2066 35 66.7566 34.45 66.7566 33.8V11.7C66.7566 11 66.2066 10.5 65.5566 10.5ZM55.1566 32.6C50.1566 32.6 45.9566 28.25 45.9566 22.75C45.9566 17.25 50.1566 12.85 55.1566 12.85C60.2066 12.85 64.3566 17.25 64.3566 22.75C64.3566 28.25 60.2066 32.6 55.1566 32.6ZM85.5137 35C88.4137 35 91.1637 34 93.2137 32.4C93.8137 31.95 93.9137 31.2 93.4637 30.65C93.0637 30.2 92.3637 30.05 91.8137 30.45C90.0637 31.8 87.8637 32.6 85.5137 32.6C79.8137 32.6 75.3137 28.2 75.3137 22.7C75.3137 17.3 79.8137 12.85 85.5137 12.85C87.8637 12.85 90.0637 13.65 91.8137 15.05C92.3637 15.45 93.0637 15.3 93.4637 14.85C93.9137 14.3 93.8137 13.55 93.3137 13.2C91.1637 11.5 88.4137 10.5 85.5137 10.5C78.5137 10.5 72.9137 15.9 72.9137 22.7C72.9137 29.6 78.5137 35 85.5137 35ZM118.728 33.8C118.728 34.45 119.278 35 119.928 35C120.628 35 121.178 34.45 121.178 33.8V20.15C121.178 14.5 116.578 10.5 110.928 10.5C107.828 10.5 105.028 11.9 103.178 14.1V1.2C103.178 0.549999 102.628 -2.38419e-06 101.928 -2.38419e-06C101.278 -2.38419e-06 100.728 0.549999 100.728 1.2V19.75V20.15V33.8C100.728 33.95 100.728 34.05 100.778 34.2C100.828 34.35 100.878 34.45 100.978 34.6C101.228 34.85 101.578 35 101.928 35H102.078H102.178C102.228 35 102.278 34.95 102.278 34.95C102.628 34.85 102.878 34.65 103.028 34.35C103.078 34.3 103.078 34.25 103.128 34.15C103.128 34.1 103.178 34.05 103.178 33.95V33.8V20.15C103.178 15.85 106.678 12.95 110.928 12.95C115.228 12.95 118.728 15.85 118.728 20.15V33.8ZM139.042 35C143.192 35 146.842 32.8 148.942 29.45C149.292 28.85 149.092 28.15 148.542 27.75C148.042 27.45 147.292 27.55 146.942 28.15C145.292 30.9 142.292 32.6 139.042 32.6C133.992 32.6 129.792 28.55 129.542 23.2H149.642C150.292 23.2 150.842 22.75 150.842 22.1V21.95V21.9C150.342 15.5 145.342 10.5 139.042 10.5C132.442 10.5 127.142 16 127.142 22.8C127.142 29.5 132.442 35 139.042 35ZM139.042 12.9C143.542 12.9 147.442 16.25 148.242 20.85H129.692C130.592 16.2 134.442 12.9 139.042 12.9ZM155.787 33.8C155.787 34.5 156.337 35 157.037 35C157.637 35 158.187 34.5 158.187 33.8V23.05C158.187 22.95 158.187 22.85 158.287 22.65C158.637 21.65 159.587 19.15 161.237 16.95C162.937 14.75 165.137 12.95 168.337 12.95C168.987 12.95 169.537 12.4 169.537 11.75C169.537 11.05 168.987 10.55 168.337 10.55C163.637 10.55 160.387 13.65 158.537 16.55C158.387 16.75 158.287 16.95 158.187 17.15V11.75C158.187 11.05 157.637 10.55 157.037 10.55C156.337 10.55 155.787 11.05 155.787 11.75V33.8ZM173.709 31.5C175.709 33.1 178.809 34.95 182.759 35C185.159 35 187.159 34.3 188.859 33.05C190.509 31.8 191.659 30.15 191.659 28.1C191.659 26.05 190.509 24.15 188.909 23.1C187.209 22.15 185.309 21.45 182.959 21.1H182.859C180.609 20.75 178.959 20.15 177.859 19.4C176.909 18.65 176.459 17.95 176.459 16.95C176.459 15.95 177.009 14.95 178.009 14.15C179.059 13.3 180.659 12.75 182.659 12.75C185.059 12.75 186.859 14 188.659 15.2C189.209 15.55 189.959 15.4 190.309 14.85C190.659 14.3 190.509 13.55 189.959 13.15C188.059 11.95 185.809 10.5 182.659 10.5C180.159 10.5 178.109 11.15 176.659 12.15C175.109 13.3 174.009 15 174.009 16.95C174.009 18.85 175.109 20.45 176.659 21.35C178.059 22.35 180.009 22.85 182.209 23.25L182.309 23.3C184.709 23.7 186.459 24.3 187.509 25.1C188.759 26.15 189.209 26.95 189.259 28.1C189.259 29.2 188.609 30.3 187.409 31.1C186.309 32 184.659 32.6 182.759 32.6C179.659 32.6 176.959 31 175.259 29.75C174.709 29.3 173.959 29.4 173.559 29.9C173.159 30.4 173.209 31.05 173.709 31.5ZM197.919 33.8C197.919 34.45 198.469 35 199.119 35C199.819 35 200.369 34.45 200.369 33.8V20.05L209.019 19.95C214.519 19.95 218.969 15.5 218.969 10C218.969 4.5 214.519 -2.38419e-06 209.019 -2.38419e-06H199.269H199.119C198.469 -2.38419e-06 197.919 0.549999 197.919 1.2V33.8ZM200.369 17.6V2.45H209.019C213.169 2.45 216.569 5.85 216.569 10C216.569 14.15 213.169 17.55 209.019 17.6H200.369ZM224.569 33.8C224.569 34.45 225.069 34.95 225.669 35H225.769H225.919H243.769C244.469 35 244.969 34.45 244.969 33.8C244.969 33.1 244.469 32.55 243.769 32.55H227.019V18.75H241.669C242.319 18.75 242.869 18.2 242.869 17.55C242.869 16.85 242.319 16.3 241.669 16.3H227.019V2.45H243.769C244.469 2.45 244.969 1.9 244.969 1.2C244.969 0.549999 244.469 -2.38419e-06 243.769 -2.38419e-06H225.869H225.769C225.119 -2.38419e-06 224.569 0.549999 224.569 1.2V33.8ZM260.758 33.8C260.758 34.45 261.308 35 261.958 35C262.608 35 263.158 34.45 263.158 33.8V2.45H273.708C274.358 2.45 274.908 1.9 274.908 1.2C274.908 0.549999 274.358 -2.38419e-06 273.708 -2.38419e-06H250.208C249.558 -2.38419e-06 249.008 0.549999 249.008 1.2C249.008 1.9 249.558 2.45 250.208 2.45H260.758V33.8Z" fill="#394648"/>
</svg>
