<?xml version="1.0" encoding="UTF-8" standalone="no"?>
<!DOCTYPE svg PUBLIC "-//W3C//DTD SVG 1.1//EN" "http://www.w3.org/Graphics/SVG/1.1/DTD/svg11.dtd">
<svg version="1.1" xmlns="http://www.w3.org/2000/svg" xmlns:xlink="http://www.w3.org/1999/xlink" preserveAspectRatio="xMidYMid meet" viewBox="0 0 640 640" width="640" height="640"><defs><path d="M240 140C240 195.19 195.19 240 140 240C84.81 240 40 195.19 40 140C40 84.81 84.81 40 140 40C195.19 40 240 84.81 240 140Z" id="a1sfAxboIS"></path><clipPath id="clipa4cbsOwK6E"><use xlink:href="#a1sfAxboIS" opacity="1"></use></clipPath><path d="M600 500C600 555.19 555.19 600 500 600C444.81 600 400 555.19 400 500C400 444.81 444.81 400 500 400C555.19 400 600 444.81 600 500Z" id="g1Z8QATvh"></path><clipPath id="clipavNgz7Nje"><use xlink:href="#g1Z8QATvh" opacity="1"></use></clipPath><path d="M217.78 400C230.05 400 240 409.95 240 422.22C240 457.78 240 542.22 240 577.78C240 590.05 230.05 600 217.78 600C182.22 600 97.78 600 62.22 600C49.95 600 40 590.05 40 577.78C40 542.22 40 457.78 40 422.22C40 409.95 49.95 400 62.22 400C97.78 400 182.22 400 217.78 400Z" id="b5cbDLtG8K"></path><clipPath id="clipb3aLZIBUan"><use xlink:href="#b5cbDLtG8K" opacity="1"></use></clipPath><path d="M400 140L400 140L500 240L600 140L500 40L400 140Z" id="b278dNowkY"></path><clipPath id="clipc1jbh4itJi"><use xlink:href="#b278dNowkY" opacity="1"></use></clipPath><path d="M300 143.73L230.68 143.73" id="mfaDbJpCR"></path><path d="M360 145.42L294.58 173.56L294.58 113.56L360 145.42Z" id="a4bLoUoTl"></path><clipPath id="clipam4USXaHw"><use xlink:href="#a4bLoUoTl" opacity="1"></use></clipPath><path d="M140 340L140 412.88" id="bWdlofDDz"></path><path d="M500 227.12L500 300" id="a30Z1mP9ij"></path><path d="M498.14 360L470 294.58L530 294.58L498.14 360Z" id="a2V8lwtU7t"></path><clipPath id="clipbOMJhau8W"><use xlink:href="#a2V8lwtU7t" opacity="1"></use></clipPath><path d="M138.14 280L110 345.42L170 345.42L138.14 280Z" id="aBHxfvo9Y"></path><clipPath id="clipagzdsLkpv"><use xlink:href="#aBHxfvo9Y" opacity="1"></use></clipPath><path d="M200 140C200 173.11 173.11 200 140 200C106.89 200 80 173.11 80 140C80 106.89 106.89 80 140 80C173.11 80 200 106.89 200 140Z" id="b15OAFMsN2"></path><path d="M560 500C560 533.11 533.11 560 500 560C466.89 560 440 533.11 440 500C440 466.89 466.89 440 500 440C533.11 440 560 466.89 560 500Z" id="bxK8EvSly"></path><path d="M460 140L460 140L500 180L540 140L500 100L460 140Z" id="a6ushaSJHH"></path><path d="M160 460C171.05 460 180 468.95 180 480C180 492 180 508 180 520C180 531.05 171.05 540 160 540C148 540 132 540 120 540C108.95 540 100 531.05 100 520C100 508 100 492 100 480C100 468.95 108.95 460 120 460C132 460 148 460 160 460Z" id="bbkeeZW1E"></path></defs><g><g><g><g clip-path="url(#clipa4cbsOwK6E)"><use xlink:href="#a1sfAxboIS" opacity="1" fill-opacity="0" stroke="#ff827b" stroke-width="36" stroke-opacity="1"></use></g></g><g><g clip-path="url(#clipavNgz7Nje)"><use xlink:href="#g1Z8QATvh" opacity="1" fill-opacity="0" stroke="#ff827b" stroke-width="36" stroke-opacity="1"></use></g></g><g><g clip-path="url(#clipb3aLZIBUan)"><use xlink:href="#b5cbDLtG8K" opacity="1" fill-opacity="0" stroke="#ff827b" stroke-width="36" stroke-opacity="1"></use></g></g><g><g clip-path="url(#clipc1jbh4itJi)"><use xlink:href="#b278dNowkY" opacity="1" fill-opacity="0" stroke="#ff827b" stroke-width="36" stroke-opacity="1"></use></g></g><g><g><use xlink:href="#mfaDbJpCR" opacity="1" fill-opacity="0" stroke="#ff827b" stroke-width="18" stroke-opacity="1"></use></g></g><g><g clip-path="url(#clipam4USXaHw)"><use xlink:href="#a4bLoUoTl" opacity="1" fill-opacity="0" stroke="#ff827b" stroke-width="30" stroke-opacity="1"></use></g></g><g><g><use xlink:href="#bWdlofDDz" opacity="1" fill-opacity="0" stroke="#ff827b" stroke-width="18" stroke-opacity="1"></use></g></g><g><g><use xlink:href="#a30Z1mP9ij" opacity="1" fill-opacity="0" stroke="#ff827b" stroke-width="18" stroke-opacity="1"></use></g></g><g><g clip-path="url(#clipbOMJhau8W)"><use xlink:href="#a2V8lwtU7t" opacity="1" fill-opacity="0" stroke="#ff827b" stroke-width="30" stroke-opacity="1"></use></g></g><g><g clip-path="url(#clipagzdsLkpv)"><use xlink:href="#aBHxfvo9Y" opacity="1" fill-opacity="0" stroke="#ff827b" stroke-width="30" stroke-opacity="1"></use></g></g><g><use xlink:href="#b15OAFMsN2" opacity="1" fill="#ff827b60" fill-opacity="1"></use></g><g><use xlink:href="#bxK8EvSly" opacity="1" fill="#ff827b60" fill-opacity="1"></use></g><g><use xlink:href="#a6ushaSJHH" opacity="1" fill="#ff827b60" fill-opacity="1"></use></g><g><use xlink:href="#bbkeeZW1E" opacity="1" fill="#ff827b60" fill-opacity="1"></use></g></g></g></svg>