<svg width="168" height="40" viewBox="0 0 168 40" fill="none" xmlns="http://www.w3.org/2000/svg">
<g clip-path="url(#clip0)">
<path d="M57.2753 13.0463V16.184C57.2753 16.9809 57.3306 17.49 57.4413 17.7114C57.5519 17.9327 57.8397 18.0434 58.3046 18.0434H59.9315L60.0643 18.0268L60.579 18.0102L61.2264 17.9604C62.0786 17.9604 62.7925 17.6394 63.368 16.9975C63.9546 16.3556 64.2479 15.6362 64.2479 14.8393V14.2914C64.2479 13.4503 63.9546 12.7364 63.368 12.1498C62.7814 11.5633 62.0122 11.27 61.0604 11.27C60.8833 11.2478 60.7505 11.2368 60.662 11.2368L60.0145 11.2036H58.9852C58.1883 11.2036 57.7014 11.3032 57.5243 11.5024C57.3583 11.6905 57.2753 12.2052 57.2753 13.0463ZM57.2587 26.6762C57.2587 27.6834 57.3859 28.281 57.6405 28.4692C57.9061 28.6463 58.6089 28.7348 59.7489 28.7348H60.9442C62.4383 28.7348 63.5285 28.3917 64.2147 27.7055C64.912 27.0082 65.2606 26.1007 65.2606 24.9828V24.6674C65.2385 24.4682 65.2274 24.3188 65.2274 24.2192C65.2274 23.378 64.8622 22.631 64.1317 21.978C63.4123 21.3139 62.5213 20.9819 61.4588 20.9819C61.2596 20.9597 61.1102 20.9487 61.0106 20.9487L60.2801 20.9155H59.2674C58.2381 20.9155 57.646 21.0317 57.4911 21.2641C57.3472 21.4965 57.2753 22.1883 57.2753 23.3393V25.2651L57.2587 25.8295V26.6762ZM59.9813 31.7729H59.5663L59.1346 31.7563H58.3046L57.0926 31.7397C54.8459 31.7397 53.5122 31.6954 53.0917 31.6069C52.4055 31.463 52.0624 31.142 52.0624 30.644C52.0624 30.3673 52.1841 29.8028 52.4276 28.9506C52.6711 28.0984 52.7928 27.0138 52.7928 25.6967L52.826 23.6713V14.6733C52.826 13.5444 52.7541 12.6424 52.6102 11.9672L52.0126 9.74261C52.0126 9.10069 52.2118 8.70225 52.6102 8.5473C53.0197 8.38129 53.8166 8.29828 55.0008 8.29828L58.6698 8.21527L59.9149 8.19867H60.3299C64.5467 8.19867 67.1753 9.38845 68.2157 11.768C68.4924 12.3989 68.6307 13.1902 68.6307 14.142C68.6307 15.0828 68.4481 15.8907 68.0829 16.5659C67.7287 17.2299 67.452 17.656 67.2528 17.8442C67.0536 18.0323 66.7547 18.2924 66.3563 18.6245C65.9579 18.9565 65.7587 19.1336 65.7587 19.1557C65.7697 19.1778 66.1516 19.4269 66.9042 19.9028C68.8189 21.0981 69.7762 22.7527 69.7762 24.8666C69.7652 29.4708 66.5002 31.7729 59.9813 31.7729Z" fill="#406A5D"/>
<path d="M79.0526 28.9672C79.6724 28.9672 80.2313 28.7182 80.7294 28.2202C81.2274 27.7221 81.4764 27.2296 81.4764 26.7426C81.4986 26.6098 81.5096 26.5157 81.5096 26.4604L81.5428 25.8793C81.5428 25.7797 81.5428 25.6801 81.5428 25.5805L81.5594 25.1987V24.8998C81.5594 24.1915 81.2606 23.8373 80.6629 23.8373H80.0819L79.9823 23.8539H79.7831C78.5103 23.8539 77.5142 24.0808 76.7948 24.5346C76.0754 24.9773 75.7157 25.5694 75.7157 26.311V26.7094C75.7157 27.3181 75.9094 27.8494 76.2967 28.3032C76.6952 28.7459 77.1711 28.9672 77.7245 28.9672L78.2059 29.017H78.5878C78.787 28.9838 78.9419 28.9672 79.0526 28.9672ZM86.8055 30.2455C86.7945 31.1752 86.0363 31.6401 84.5311 31.6401C83.7785 31.6401 83.1144 31.4907 82.5389 31.1918C81.9634 30.8819 81.4543 30.727 81.0116 30.727C80.9784 30.727 80.4305 30.9317 79.368 31.3412C78.3055 31.7397 77.326 31.9389 76.4296 31.9389C74.9243 31.9389 73.7014 31.5128 72.7606 30.6606C71.8309 29.8084 71.3661 28.6961 71.3661 27.3237V26.9252C71.3661 23.8041 73.7733 22.0222 78.5878 21.5795C79.4621 21.5021 80.0708 21.408 80.4139 21.2973C81.0669 21.0759 81.3934 20.5945 81.3934 19.853C81.3934 19.1004 81.0891 18.5138 80.4803 18.0932C80.1151 17.8386 79.6281 17.7114 79.0194 17.7114C78.4107 17.7114 77.5253 17.9659 76.3631 18.475C75.2121 18.9731 74.3986 19.2221 73.9227 19.2221C73.4468 19.2221 73.076 19.0561 72.8104 18.7241C72.5448 18.392 72.412 17.9881 72.412 17.5121C72.412 16.7042 73.0594 16.0291 74.3544 15.4868C75.6603 14.9444 77.0825 14.6733 78.621 14.6733C81.565 14.6733 83.5682 15.437 84.6307 16.9643C85.1066 17.6394 85.411 18.4031 85.5438 19.2553C85.6877 20.0965 85.7596 21.5187 85.7596 23.5219C85.7596 25.5141 85.7984 26.726 85.8758 27.1577C85.9644 27.5893 86.1415 28.0652 86.4071 28.5854C86.6727 29.0945 86.8055 29.5317 86.8055 29.8969V30.2455Z" fill="#406A5D"/>
<path d="M91.3837 15.1879H91.9647C93.1379 15.199 93.9458 15.5808 94.3885 16.3334C94.5324 16.5769 94.6708 16.6987 94.8036 16.6987C94.9475 16.6987 95.2297 16.5659 95.6503 16.3002C96.0708 16.0346 96.5135 15.7911 96.9784 15.5698C97.4432 15.3373 98.0409 15.2211 98.7713 15.2211C99.5018 15.2211 100.044 15.3871 100.398 15.7192C100.764 16.0401 100.946 16.4441 100.946 16.9311C100.946 17.407 100.791 17.8718 100.481 18.3256C100.171 18.7683 99.7674 18.9897 99.2694 18.9897L97.2274 18.7739C96.8843 18.7739 96.4803 18.9177 96.0155 19.2055C95.5617 19.4933 95.1965 19.947 94.9198 20.5668C94.6431 21.1866 94.5047 22.1606 94.5047 23.4887C94.5047 24.8058 94.6542 26.0287 94.953 27.1577C95.2518 28.2644 95.4012 29.1277 95.4012 29.7475C95.4012 30.9871 94.2668 31.6069 91.9979 31.6069H91.6825C90.1441 31.6069 89.3749 31.0258 89.3749 29.8637C89.3749 29.5206 89.4855 29.0115 89.7069 28.3364C89.9393 27.6502 90.0777 27.0912 90.1219 26.6596C90.1773 26.2169 90.2049 24.9884 90.2049 22.9741C90.2049 20.9597 90.1662 19.7368 90.0887 19.3051C90.0113 18.8624 89.8508 18.4086 89.6073 17.9438C89.3638 17.4679 89.2421 17.0307 89.2421 16.6323C89.2421 16.2338 89.4302 15.8963 89.8065 15.6196C90.1828 15.3318 90.7085 15.1879 91.3837 15.1879Z" fill="#406A5D"/>
<path d="M104.96 31.3578C104.152 31.3578 103.587 31.214 103.266 30.9262C102.945 30.6384 102.785 30.1404 102.785 29.4321C102.785 29.255 102.84 28.8897 102.951 28.3364C103.161 27.2849 103.266 26.062 103.266 24.6674V20.517L103.283 18.8237V14.0424C103.283 12.5372 103.25 11.6241 103.183 11.3032C103.128 10.9822 103.017 10.5174 102.851 9.90863C102.685 9.28884 102.602 8.91807 102.602 8.79633V8.33148C102.602 8.07692 102.796 7.8279 103.183 7.58441C103.582 7.32985 104.379 7.20258 105.574 7.20258C106.437 7.20258 106.985 7.51801 107.218 8.14886C107.45 8.76866 107.566 10.5506 107.566 13.4946C107.566 16.4386 107.599 18.2149 107.666 18.8237C107.777 19.7976 108.059 20.2846 108.513 20.2846C108.9 20.2846 109.664 19.6205 110.804 18.2924C111.08 17.9715 111.418 17.5177 111.816 16.9311C112.215 16.3334 112.608 15.8963 112.995 15.6196C113.382 15.3429 114.013 15.2045 114.888 15.2045C116.404 15.2045 117.162 15.4868 117.162 16.0512C117.162 16.6046 116.393 17.6339 114.854 19.1391C113.316 20.6443 112.547 21.7345 112.547 22.4096C112.547 22.6642 113.51 24.0753 115.435 26.643C117.361 29.2107 118.324 30.6274 118.324 30.893C118.324 31.3246 117.909 31.5405 117.079 31.5405H116.564C114.971 31.5405 113.858 31.225 113.227 30.5942C112.973 30.3396 112.602 29.7254 112.115 28.7514C111.628 27.7774 111.058 26.8533 110.405 25.9789C109.752 25.0935 109.193 24.6508 108.728 24.6508C108.584 24.6508 108.385 24.839 108.131 25.2153C107.887 25.5805 107.765 26.239 107.765 27.1909L107.981 29.4985C107.981 30.7381 106.974 31.3578 104.96 31.3578Z" fill="#406A5D"/>
<path d="M124.645 20.0356C124.645 21.3084 124.811 22.4705 125.143 23.5219C125.487 24.5623 125.879 25.3924 126.322 26.0121C126.776 26.6209 127.462 27.1577 128.381 27.6225C129.299 28.0873 130.257 28.3198 131.253 28.3198C132.26 28.3198 133.046 28.0431 133.61 27.4897C134.186 26.9363 134.473 26.2612 134.473 25.4643C134.473 24.6674 134.097 23.8982 133.345 23.1567C132.603 22.4041 132.232 21.812 132.232 21.3803C132.232 21.2254 132.31 21.0704 132.465 20.9155C132.863 20.517 133.765 20.3178 135.171 20.3178C136.587 20.3178 137.589 20.4617 138.176 20.7495C138.762 21.0261 139.056 21.5076 139.056 22.1938C139.056 26.5434 138.679 29.1609 137.927 30.0463C137.451 30.6108 136.499 31.0812 135.071 31.4575C133.654 31.8338 132.138 32.0219 130.522 32.0219C127.202 32.0219 124.629 30.9649 122.803 28.851C121.995 27.9103 121.336 26.6541 120.827 25.0825C120.318 23.4998 120.063 21.7843 120.063 19.936C120.063 14.2582 122.255 10.5506 126.638 8.81293C127.91 8.30381 129.371 8.04926 131.02 8.04926H131.668C133.804 8.04926 135.315 8.27614 136.2 8.72992C137.085 9.17263 137.683 9.64301 137.993 10.1411C138.303 10.628 138.458 11.0043 138.458 11.27C138.458 12.0779 138.303 12.6313 137.993 12.9301C137.694 13.2179 137.429 13.3618 137.196 13.3618C136.975 13.3618 136.139 13.0795 134.689 12.5151C133.251 11.9506 132.022 11.6684 131.004 11.6684C128.89 11.6684 127.263 12.4542 126.123 14.0258C125.138 15.3761 124.645 17.3793 124.645 20.0356Z" fill="#406A5D"/>
<path d="M144.298 15.1879H144.879C146.052 15.199 146.86 15.5808 147.303 16.3334C147.446 16.5769 147.585 16.6987 147.718 16.6987C147.862 16.6987 148.144 16.5659 148.564 16.3002C148.985 16.0346 149.428 15.7911 149.892 15.5698C150.357 15.3373 150.955 15.2211 151.685 15.2211C152.416 15.2211 152.958 15.3871 153.312 15.7192C153.678 16.0401 153.86 16.4441 153.86 16.9311C153.86 17.407 153.705 17.8718 153.395 18.3256C153.085 18.7683 152.682 18.9897 152.183 18.9897L150.141 18.7739C149.798 18.7739 149.394 18.9177 148.93 19.2055C148.476 19.4933 148.111 19.947 147.834 20.5668C147.557 21.1866 147.419 22.1606 147.419 23.4887C147.419 24.8058 147.568 26.0287 147.867 27.1577C148.166 28.2644 148.315 29.1277 148.315 29.7475C148.315 30.9871 147.181 31.6069 144.912 31.6069H144.597C143.058 31.6069 142.289 31.0258 142.289 29.8637C142.289 29.5206 142.4 29.0115 142.621 28.3364C142.853 27.6502 142.992 27.0912 143.036 26.6596C143.091 26.2169 143.119 24.9884 143.119 22.9741C143.119 20.9597 143.08 19.7368 143.003 19.3051C142.925 18.8624 142.765 18.4086 142.521 17.9438C142.278 17.4679 142.156 17.0307 142.156 16.6323C142.156 16.2338 142.344 15.8963 142.721 15.6196C143.097 15.3318 143.623 15.1879 144.298 15.1879Z" fill="#406A5D"/>
<path d="M157.608 15.1879H158.189C159.362 15.199 160.17 15.5808 160.613 16.3334C160.757 16.5769 160.895 16.6987 161.028 16.6987C161.172 16.6987 161.454 16.5659 161.875 16.3002C162.295 16.0346 162.738 15.7911 163.203 15.5698C163.668 15.3373 164.265 15.2211 164.996 15.2211C165.726 15.2211 166.269 15.3871 166.623 15.7192C166.988 16.0401 167.171 16.4441 167.171 16.9311C167.171 17.407 167.016 17.8718 166.706 18.3256C166.396 18.7683 165.992 18.9897 165.494 18.9897L163.452 18.7739C163.109 18.7739 162.705 18.9177 162.24 19.2055C161.786 19.4933 161.421 19.947 161.144 20.5668C160.868 21.1866 160.729 22.1606 160.729 23.4887C160.729 24.8058 160.879 26.0287 161.178 27.1577C161.476 28.2644 161.626 29.1277 161.626 29.7475C161.626 30.9871 160.491 31.6069 158.223 31.6069H157.907C156.369 31.6069 155.599 31.0258 155.599 29.8637C155.599 29.5206 155.71 29.0115 155.932 28.3364C156.164 27.6502 156.302 27.0912 156.347 26.6596C156.402 26.2169 156.43 24.9884 156.43 22.9741C156.43 20.9597 156.391 19.7368 156.313 19.3051C156.236 18.8624 156.075 18.4086 155.832 17.9438C155.588 17.4679 155.467 17.0307 155.467 16.6323C155.467 16.2338 155.655 15.8963 156.031 15.6196C156.407 15.3318 156.933 15.1879 157.608 15.1879Z" fill="#406A5D"/>
<path fill-rule="evenodd" clip-rule="evenodd" d="M11.8418 8.96015C9.79243 6.91077 9.79243 3.58807 11.8418 1.53868C13.8912 -0.510698 17.2139 -0.510698 19.2633 1.53868C21.3127 3.58807 21.3127 6.91077 19.2633 8.96015C17.2139 11.0095 13.8912 11.0095 11.8418 8.96015ZM26.5895 1.91039C24.5401 3.95977 24.5401 7.28248 26.5895 9.33186C28.6389 11.3812 31.9616 11.3812 34.011 9.33186C36.0604 7.28248 36.0604 3.95977 34.011 1.91039C31.9616 -0.138993 28.6389 -0.138993 26.5895 1.91039ZM20.5385 15.5138L31.6517 15.4894C33.7938 15.484 35.806 16.3137 37.3173 17.8251C38.8285 19.3362 39.6579 21.3486 39.653 23.4907C39.6486 25.6328 38.8098 27.648 37.292 29.1657C35.7743 30.6834 33.3147 31.0728 31.1726 31.0777H31.1101V31.1402C31.1056 33.2823 30.7165 35.7412 29.1985 37.2592C27.6808 38.777 25.6652 39.6157 23.5233 39.6205C19.1018 39.6304 15.5123 36.0408 15.522 31.6191L15.5467 20.5054C15.5528 17.7511 17.7841 15.5197 20.5385 15.5138ZM2.01101 33.9104C-0.0383771 31.861 -0.0383771 28.5383 2.01101 26.4889C4.06039 24.4396 7.38309 24.4396 9.43248 26.4889C11.4819 28.5383 11.4819 31.861 9.43248 33.9104C7.38309 35.9598 4.06039 35.9598 2.01101 33.9104ZM1.53704 12.1421C-0.512346 14.1915 -0.512346 17.5142 1.53704 19.5636C3.58642 21.613 6.90912 21.613 8.95851 19.5636C11.0079 17.5142 11.0079 14.1915 8.95851 12.1421C6.90912 10.0928 3.58642 10.0928 1.53704 12.1421Z" fill="#92644D"/>
</g>
<defs>
<clipPath id="clip0">
<rect width="167.21" height="39.63" fill="white"/>
</clipPath>
</defs>
</svg>
